<?xml version="1.0" encoding="UTF-8" standalone="no"?>
<svg
   enable-background="new 0 0 15 15"
   version="1.1"
   viewBox="0 0 15 15"
   id="svg4"
   sodipodi:docname="logo.svg"
   inkscape:version="1.1 (c4e8f9ed74, 2021-05-24)"
   xmlns:inkscape="http://www.inkscape.org/namespaces/inkscape"
   xmlns:sodipodi="http://sodipodi.sourceforge.net/DTD/sodipodi-0.dtd"
   xmlns="http://www.w3.org/2000/svg"
   xmlns:svg="http://www.w3.org/2000/svg">
  <defs
     id="defs8" />
  <sodipodi:namedview
     id="namedview6"
     pagecolor="#ffffff"
     bordercolor="#666666"
     borderopacity="1.0"
     inkscape:pageshadow="2"
     inkscape:pageopacity="0.0"
     inkscape:pagecheckerboard="0"
     showgrid="false"
     inkscape:zoom="44"
     inkscape:cx="3.1477273"
     inkscape:cy="7.5454545"
     inkscape:window-width="1502"
     inkscape:window-height="932"
     inkscape:window-x="670"
     inkscape:window-y="0"
     inkscape:window-maximized="0"
     inkscape:current-layer="svg4" />
  <path
     d="m4 0c-1.3636 0-3 0.7433-3 2.7461v9.2539s0 1 1 1v1s0 1 1 1 1-1 1-1v-1h7v1s0 1 1 1 1-1 1-1v-1s1 0 1-1v-9.2539c0-2.0455-1.236-2.7461-2.5996-2.7461h-7.4004zm0.25 1.5h6.5c0.1385 0 0.25 0.1115 0.25 0.25s-0.1115 0.25-0.25 0.25h-6.5c-0.1385 0-0.25-0.1115-0.25-0.25s0.1115-0.25 0.25-0.25zm-1.25 1.5h9c1 0 1 0.9668 1 0.9668v3.0332s0 1-1 1h-9c-1 0-1-1-1-1v-3s0-1 1-1zm0 7c0.5523 0 1 0.4477 1 1s-0.4477 1-1 1-1-0.4477-1-1 0.4477-1 1-1zm9 0c0.5523 0 1 0.4477 1 1s-0.4477 1-1 1-1-0.4477-1-1 0.4477-1 1-1z"
     id="path2"
     style="fill:#0195c5;fill-opacity:1" />
</svg>
